Coordinates
version=1
nRows=9
nColumns=42
inDegrees=yes

Units are S.I. units (second, meters, Newtons, ...)
If the header above contains a line with 'inDegrees', this indicates whether rotational values are in degrees (yes) or radians (no).

endheader
time	pelvis_tilt	pelvis_list	pelvis_rotation	pelvis_tx	pelvis_ty	pelvis_tz	hip_flexion_r	hip_adduction_r	hip_rotation_r	knee_angle_r	knee_adduction_r	knee_angle_r_beta	ankle_angle_r	subtalar_angle_r	mtp_angle_r	hip_flexion_l	hip_adduction_l	hip_rotation_l	knee_angle_l	knee_adduction_l	knee_angle_l_beta	ankle_angle_l	subtalar_angle_l	mtp_angle_l	lumbar_extension	lumbar_bending	lumbar_rotation	arm_flex_r	arm_add_r	arm_rot_r	elbow_flex_r	pro_sup_r	wrist_flex_r	wrist_dev_r	arm_flex_l	arm_add_l	arm_rot_l	elbow_flex_l	pro_sup_l	wrist_flex_l	wrist_dev_l
      1.19000000	     -4.57884210	     -3.12177394	      3.03786465	      0.64416029	      0.97403099	     -0.22316181	      9.30961494	      6.58501782	    -11.32551392	     14.82768155	     -2.36636331	      0.25879186	      8.18234397	     -2.54172642	     -7.62063007	     26.68354659	     -4.40516513	     -9.19019840	     59.79444406	     -5.87692445	      1.04360992	     -1.45140710	    -18.43019591	     -7.62063007	     -7.53448515	      5.46387694	      5.44081571	     -2.35995378	     -9.27284481	     -8.35535163	     29.94784400	     90.00000001	      0.00000000	      0.00000000	      3.44065797	     -8.00583303	      4.58117824	     41.39405749	     90.00000001	      0.00000000	      0.00000000
      1.20000000	     -4.57481031	     -2.92647486	      2.79195134	      0.65793118	      0.97388869	     -0.22240056	      8.15383910	      6.51278786	    -11.01815400	     14.38178398	     -2.30995155	      0.25100948	      8.76298455	     -2.19498875	     -7.61854927	     27.85888568	     -4.08982005	     -8.48097572	     58.14441158	     -5.05014266	      1.01481142	     -1.19299786	    -18.26216296	     -7.61854927	     -7.65161846	      5.18248954	      5.91124359	     -1.81157261	     -9.43210375	     -7.95009880	     30.64624025	     90.00000001	      0.00000000	      0.00000000	      2.81902409	     -8.20082086	      4.39284929	     41.10091857	     90.00000001	      0.00000000	      0.00000000
      1.21000000	     -4.43758064	     -2.84800165	      2.53056527	      0.67173674	      0.97353977	     -0.22159636	      6.87936053	      6.57624187	    -10.65542856	     13.98105992	     -2.24462611	      0.24401553	      9.39319286	     -1.99511255	     -7.61461962	     28.78132541	     -3.95090035	     -7.54519015	     56.24772782	     -4.01502778	      0.98170805	     -1.04366640	    -18.22677273	     -7.61461962	     -7.93402906	      5.03823778	      6.39882017	     -1.39093676	     -9.78400058	     -6.89894251	     31.68177774	     90.00000001	      0.00000000	      0.00000000	      2.28349788	     -8.29550220	      3.94613120	     40.67710373	     90.00000001	      0.00000000	      0.00000000
      1.22000000	     -4.48919001	     -2.72980855	      2.24985160	      0.68555578	      0.97266745	     -0.22079423	      5.89466955	      6.58902723	    -10.43884580	     13.72344939	     -2.25847735	      0.23951938	      9.86795699	     -1.79785804	     -7.61272353	     29.84410236	     -3.74764803	     -7.21863266	     54.08595263	     -3.54166329	      0.94397795	     -0.79476598	    -18.00210636	     -7.61272353	     -7.95895304	      4.81841568	      6.81042856	     -0.78869577	     -9.94810811	     -6.49671764	     32.34796331	     90.00000001	      0.00000000	      0.00000000	      1.63442849	     -8.51174761	      3.72878743	     40.33538695	     90.00000001	      0.00000000	      0.00000000
      1.23000000	     -4.39421914	     -2.61804759	      1.94625229	      0.69947302	      0.97167803	     -0.22003447	      4.72434471	      6.59548632	    -10.04013870	     13.44873667	     -2.19519866	      0.23472474	     10.57249907	     -1.64288245	     -7.61052921	     30.59040658	     -3.58467453	     -6.71343856	     51.64283121	     -2.88818607	      0.90133744	     -0.64507698	    -17.94204121	     -7.61052921	     -8.16195913	      4.61641251	      7.25947269	     -0.22122121	    -10.17822376	     -5.88502699	     33.17160540	     90.00000001	      0.00000000	      0.00000000	      1.07832888	     -8.68733921	      3.39010367	     39.87302142	     90.00000001	      0.00000000	      0.00000000
      1.24000000	     -4.21478525	     -2.67263131	      1.65551031	      0.71345828	      0.97044804	     -0.21924389	      3.48178775	      6.80345314	     -9.65658913	     13.20250863	     -2.16216160	      0.23042725	     11.18902189	     -1.78689220	     -7.60664544	     31.17283372	     -3.62659575	     -6.29723823	     49.01317464	     -2.35418906	      0.85544127	     -0.65744433	    -17.98423918	     -7.60664544	     -8.44768366	      4.60476717	      7.70037111	      0.19945068	    -10.64826966	     -4.58257298	     34.29235486	     90.00000001	      0.00000000	      0.00000000	      0.62331584	     -8.67521231	      2.67931260	     39.13506561	     90.00000001	      0.00000000	      0.00000000
      1.25000000	     -4.17201654	     -2.67296613	      1.33750903	      0.72748535	      0.96881208	     -0.21846040	      2.43537534	      6.92481090	     -9.36113490	     13.05746531	     -2.12772002	      0.22789576	     11.78236254	     -1.88877456	     -7.60349184	     31.79461381	     -3.62714441	     -6.23799530	     46.14125291	     -2.06884374	      0.80531678	     -0.53095235	    -17.86668268	     -7.60349184	     -8.55998048	      4.50032759	      8.07250304	      0.75773579	    -10.96434023	     -3.73510342	     35.11785468	     90.00000001	      0.00000000	      0.00000000	      0.08082157	     -8.76624974	      2.13817684	     38.53387008	     90.00000001	      0.00000000	      0.00000000
      1.26000000	     -4.07171751	     -2.75024025	      1.03017406	      0.74155586	      0.96694956	     -0.21771122	      1.31360178	      7.17464581	     -9.04998692	     12.87253099	     -2.19938116	      0.22466805	     12.35852930	     -2.15541923	     -7.59893241	     32.27050226	     -3.70703356	     -6.28437040	     43.10801434	     -1.89415248	      0.75237678	     -0.48697604	    -17.73519393	     -7.59893241	     -8.74221827	      4.50170245	      8.45093289	      1.26851925	    -11.34906422	     -2.53649620	     36.08721039	     90.00000001	      0.00000000	      0.00000000	     -0.35543252	     -8.77041942	      1.28682965	     37.65496486	     90.00000001	      0.00000000	      0.00000000
      1.27000000	     -4.07595520	     -2.77399828	      0.70981197	      0.75566069	      0.96477304	     -0.21704741	      0.36109005	      7.28577542	     -8.87460390	     12.82805805	     -2.17440538	      0.22389185	     12.98856166	     -2.19514853	     -7.59641234	     32.72019685	     -3.73594571	     -6.48584524	     39.83771365	     -1.79278525	      0.69529927	     -0.28763414	    -17.39988734	     -7.59641234	     -8.79706186	      4.43013428	      8.78044314	      1.88967143	    -11.56610154	     -2.08032756	     36.75023918	     90.00000001	      0.00000000	      0.00000000	     -0.92754380	     -8.88622203	      0.87459805	     37.06103182	     90.00000001	      0.00000000	      0.00000000
